<svg xmlns="http://www.w3.org/2000/svg" viewBox="0 0 512 512"><defs><style>.cls-1{fill:#f55b4b;}.cls-2{fill:#f5c652;}.cls-3{fill:#1da2dd;}.cls-4{fill:#47c0ea;}.cls-5{fill:#f9e7c0;}.cls-6{fill:#f9e3ac;}.cls-7{fill:#f7d997;}.cls-8{fill:#efc478;}</style></defs><g id="BULINE"><circle class="cls-1" cx="256" cy="256" r="256"/></g><g id="Icons"><circle class="cls-2" cx="255.71" cy="57.85" r="42.85"/><path class="cls-3" d="M512,256a255.21,255.21,0,0,1-20.88,101.42H20.88a256.52,256.52,0,0,1,9.75-222.93,283.75,283.75,0,0,1,116.66,10.88s70.6,20.49,142.15,0c0,0,70.39-23.65,141.4-2.22a179,179,0,0,0,24.59,5.72,256.74,256.74,0,0,0,34.44,2.89A254.83,254.83,0,0,1,512,256Z"/><path class="cls-4" d="M512,256a254.78,254.78,0,0,1-43.25,142.42H43.25A256.5,256.5,0,0,1,12,178.22c30.63-5.56,80.16-9.14,135.25,8.15,0,0,70.6,20.49,142.15,0,0,0,70.39-23.65,141.4-2.22a179,179,0,0,0,24.59,5.72,252,252,0,0,0,48.64,2.69A256.13,256.13,0,0,1,512,256Z"/><path class="cls-5" d="M509.9,288.89a254.49,254.49,0,0,1-10.73,47.34q-3.56,10.81-8.05,21.19a256,256,0,0,1-447.87,41A254,254,0,0,1,23,362.25c71.93-7.12,122.08-31,145.84-44.81a372.91,372.91,0,0,1,84.94-36.58C367,248.56,464,272.63,509.9,288.89Z"/><path class="cls-6" d="M499.17,336.23q-3.56,10.81-8.05,21.19a256,256,0,0,1-447.87,41A254.46,254.46,0,0,1,.7,274.92q-.52-7-.66-14.05c46.81-16.23,142.4-39,253.74-7.21a372.73,372.73,0,0,1,85,36.58C364.07,305,419.4,331.14,499.17,336.23Z"/><path class="cls-7" d="M430.84,443A255.9,255.9,0,0,1,.7,274.92,421.57,421.57,0,0,1,182,285.65a372.94,372.94,0,0,1,84.94,36.59A314.84,314.84,0,0,0,313,343.94,233.25,233.25,0,0,1,430.84,443Z"/><path class="cls-8" d="M376.36,482a256.37,256.37,0,0,1-240.72,0Z"/><circle class="cls-8" cx="111.86" cy="302.56" r="8.62"/><circle class="cls-8" cx="64.3" cy="368.69" r="8.62"/><circle class="cls-8" cx="234.27" cy="435.98" r="8.62"/><circle class="cls-8" cx="341.17" cy="398.03" r="8.62"/><circle class="cls-7" cx="429.1" cy="359.69" r="8.62"/><circle class="cls-7" cx="285.99" cy="308.69" r="8.62"/><circle class="cls-7" cx="408.41" cy="286.03" r="8.62"/><circle class="cls-7" cx="138.67" cy="261.69" r="8.62"/><circle class="cls-8" cx="107.37" cy="450.03" r="8.62"/><circle class="cls-8" cx="188.67" cy="354.65" r="8.62"/></g></svg>