<svg xmlns="http://www.w3.org/2000/svg" viewBox="0 0 512 512"><defs><style>.cls-1{fill:#7cc8fb;}.cls-2{fill:#e5ae35;}.cls-3{fill:#f5c652;}.cls-4{fill:#f7dc97;}.cls-5{fill:#f5d272;}.cls-6{fill:#f9e5bb;}.cls-7{fill:#f9ecd7;}</style></defs><g id="BULINE"><circle class="cls-1" cx="256" cy="256" r="256"/></g><g id="Icons"><path class="cls-2" d="M89.44,256c0,14.48-43.23,33.62-40.15,47.16,3.18,14,50.51,12.49,56.6,25.11,6.19,12.83-24.42,48.9-15.62,59.92s50.82-10.79,61.89-1.95-1,54.6,11.83,60.79c12.62,6.08,40.93-31.79,54.92-28.61C232.45,421.5,241.52,468,256,468s23.55-46.49,37.09-49.57c14-3.18,42.3,34.69,54.92,28.61,12.83-6.19.81-52,11.83-60.79s53.05,13,61.9,1.94-21.82-47.08-15.63-59.91c6.09-12.62,53.43-11.12,56.6-25.11,3.08-13.54-40.15-32.68-40.15-47.16s43.23-33.62,40.15-47.16c-3.18-14-50.51-12.49-56.6-25.11-6.19-12.83,24.42-48.9,15.62-59.92s-50.82,10.79-61.89,2,1-54.6-11.83-60.79c-12.62-6.08-40.93,31.79-54.92,28.61C279.55,90.5,270.48,44,256,44S232.45,90.5,218.91,93.58c-14,3.18-42.3-34.69-54.92-28.61-12.83,6.19-.81,52-11.83,60.79s-53-13-61.9-1.94,21.82,47.08,15.63,59.91c-6.09,12.62-53.43,11.12-56.6,25.11C46.21,222.38,89.44,241.52,89.44,256Z"/><path class="cls-3" d="M113.77,256c0,12.36-36.91,28.7-34.28,40.27,2.71,12,43.13,10.66,48.33,21.44,5.28,11-20.85,41.75-13.34,51.16s43.4-9.21,52.85-1.66-.85,46.62,10.11,51.91c10.77,5.2,34.94-27.15,46.88-24.43C235.89,397.32,243.64,437,256,437s20.11-39.69,31.68-42.32c11.94-2.72,36.11,29.63,46.89,24.43,10.95-5.29.69-44.4,10.1-51.91s45.3,11.12,52.85,1.66-18.62-40.2-13.34-51.16c5.2-10.78,45.62-9.49,48.33-21.44,2.63-11.57-34.28-27.91-34.28-40.27s36.91-28.7,34.28-40.27c-2.71-11.95-43.13-10.66-48.33-21.44-5.28-11,20.85-41.75,13.34-51.16s-43.4,9.21-52.85,1.66.85-46.62-10.11-51.91c-10.77-5.2-34.94,27.15-46.88,24.43C276.11,114.68,268.36,75,256,75s-20.11,39.69-31.68,42.32c-11.94,2.72-36.11-29.63-46.89-24.43-11,5.29-.69,44.4-10.1,51.91s-45.3-11.12-52.85-1.66,18.62,40.2,13.34,51.16c-5.2,10.78-45.62,9.49-48.33,21.44C76.86,227.3,113.77,243.64,113.77,256Z"/><circle class="cls-4" cx="256" cy="256" r="127.62"/><path class="cls-5" d="M280.51,381.25a127.62,127.62,0,1,1,0-250.5,127.63,127.63,0,0,0,0,250.5Z"/><circle class="cls-6" cx="308.71" cy="238.49" r="52.71"/><circle class="cls-7" cx="328.25" cy="249.51" r="12.3"/><circle class="cls-7" cx="328.25" cy="223.89" r="8.71"/></g></svg>