<svg xmlns="http://www.w3.org/2000/svg" viewBox="0 0 512 512"><defs><style>.cls-1{fill:#7cc8fb;}.cls-2{fill:#f9e2a7;}.cls-3{fill:#f5d272;}.cls-4{fill:#e0bc63;}.cls-5{fill:#d91f26;}.cls-6{fill:#bc1e2a;}.cls-7{fill:#11b264;}.cls-8{fill:#0f964f;}.cls-9{fill:#f5c652;}.cls-10{fill:#f9db8f;}.cls-11{fill:#f5ba35;}.cls-12{fill:#3885c6;}.cls-13{fill:#41bfe2;}</style></defs><g id="BULINE"><circle class="cls-1" cx="256" cy="256" r="256"/></g><g id="Icons"><path class="cls-2" d="M512,256A255.77,255.77,0,0,1,369.43,485.56L62.52,423.65a254.91,254.91,0,0,1-62-151.37Q0,264.21,0,256a256.77,256.77,0,0,1,3.65-43.24c109.73,32.53,163.74,25.2,186.58,17.63a357.56,357.56,0,0,1,85.3-17.63c96.54-7.39,184.66,13.83,236.15,30.31Q512,249.49,512,256Z"/><path class="cls-3" d="M497.16,342.06C461.82,441.11,367.19,512,256,512,120.09,512,8.91,406.08.51,272.28c47-7.11,152.54-17,261.67,13.81a358.07,358.07,0,0,1,80.14,34.15C361.17,331,405,346.62,497.16,342.06Z"/><path class="cls-4" d="M297.76,328.09a8.16,8.16,0,0,0,2.08-5.15c0-15.32-53.92-27.75-120.44-27.75S59,307.62,59,322.94c0,12.09,33.53,22.37,80.33,26.17a19.09,19.09,0,0,1,17.35,19.55v.2c0,22.85,53.93,41.37,120.45,41.37s120.44-18.52,120.44-41.37C397.52,348.43,354.42,331.46,297.76,328.09Z"/><path class="cls-5" d="M374.34,355.1a170.16,170.16,0,0,1-176.25-10.2,171,171,0,0,1-32.35-29.07l180.85-110.9S375.4,282.12,374.34,355.1Z"/><path class="cls-6" d="M349.37,365.91c-64.61,22-139.41,1.63-183.63-50.08l43.59-26.73c29.53,48.12,83.76,77.42,140,76.81C332.18,371.76,348.45,365.92,349.37,365.91Z"/><path class="cls-7" d="M346.59,204.93l-218-37a166.57,166.57,0,0,1,5.44-19.15A170.09,170.09,0,0,1,282.84,35.34c.83-.06,1.66-.11,2.5-.15C366.16,115,346.59,204.93,346.59,204.93Z"/><path class="cls-8" d="M299.84,50.83c-57.54,17.26-102.07,68-112,127.18l-59.2-10C144.7,95.1,210.49,38.75,285.34,35.19q7.88,7.77,14.5,15.64C297.44,51.55,295.41,45.59,299.84,50.83Z"/><path class="cls-9" d="M464.59,204.93a169.27,169.27,0,0,1-20.49,81l-97.51-81L407.31,77.68q4.11,3.64,8,7.55A169.47,169.47,0,0,1,464.59,204.93Z"/><path class="cls-7" d="M456.76,256.07a170.45,170.45,0,0,1-82.42,99,167.57,167.57,0,0,1-19.18,8.72l-8.57-158.89S399.3,215.18,456.76,256.07Z"/><path class="cls-5" d="M346.59,204.93c.79-51-44.67-136.15-63.75-169.59q5.82-.42,11.75-.41A169.47,169.47,0,0,1,415.3,85.23C407.63,143.53,346.59,204.93,346.59,204.93Z"/><circle class="cls-10" cx="448.55" cy="185.26" r="9.48"/><circle class="cls-10" cx="444.2" cy="165.99" r="6.72"/><path class="cls-9" d="M346.59,204.93c-31.81,54.08-107.11,111.16-148.5,140a170.21,170.21,0,0,1-64-196.08l0,0C240.58,135.18,346.59,204.93,346.59,204.93Z"/><path class="cls-6" d="M349.37,44l-2.78,0a160.71,160.71,0,0,0-46.75,6.9q-3.6,1.08-7.11,2.33c-3.71-6.88-7.09-12.91-9.89-17.82.83-.06,1.66-.11,2.5-.15,3.06-.18,6.15-.26,9.25-.26A169.66,169.66,0,0,1,349.37,44Z"/><path class="cls-11" d="M233,319.27c-13,9.92-25.08,18.61-35.16,25.63-61.71-42.73-88.94-124.86-64-196.08l0,0a242.46,242.46,0,0,1,61.41.41C173.7,207.45,188.88,275.62,233,319.27,220,329.19,223.83,310.23,233,319.27Z"/><circle class="cls-12" cx="346.59" cy="204.93" r="41"/><circle class="cls-13" cx="346.59" cy="204.93" r="28.67"/><ellipse class="cls-4" cx="102.78" cy="378.59" rx="25.85" ry="11.33"/><ellipse class="cls-3" cx="474.4" cy="297.93" rx="25.85" ry="11.33"/><ellipse class="cls-3" cx="444.2" cy="325.26" rx="16.2" ry="7.1"/><ellipse class="cls-3" cx="73.33" cy="248.93" rx="16.2" ry="7.1"/><ellipse class="cls-4" cx="448.55" cy="374.67" rx="25.85" ry="11.33"/><ellipse class="cls-4" cx="383.56" cy="422.26" rx="21.81" ry="9.56"/><ellipse class="cls-4" cx="206.33" cy="431.82" rx="16.07" ry="7.05"/></g></svg>